<?xml version="1.0" encoding="UTF-8"?><svg id="Calque_2" xmlns="http://www.w3.org/2000/svg" viewBox="0 0 375 56.23"><defs><style>.cls-1{fill:#f7f4e6;}.cls-2{fill:#3f2d1f;}</style></defs><g id="Calque_1-2"><rect class="cls-1" width="375" height="56.23"/><g><path class="cls-2" d="M155.87,22.81c.25,0,.45,.09,.58,.28,.14,.19,.26,.39,.36,.62,.11,.23,.23,.44,.36,.62,.13,.19,.32,.28,.57,.28,.31,0,.55-.05,.73-.15,.18-.1,.31-.23,.41-.38,.09-.15,.15-.31,.18-.47,.03-.16,.04-.31,.04-.43,0-.42-.1-.79-.3-1.1-.2-.31-.45-.6-.75-.88-.3-.27-.63-.53-.98-.78-.35-.25-.68-.52-.98-.81-.3-.29-.55-.61-.75-.97-.2-.35-.3-.77-.3-1.23,0-.36,.09-.69,.27-.99s.41-.55,.71-.76c.29-.21,.64-.38,1.04-.5,.4-.12,.81-.17,1.24-.17,.89,0,1.57,.13,2.04,.4s.71,.64,.71,1.11c0,.18-.07,.35-.22,.51-.15,.16-.36,.25-.63,.25-.17,0-.31-.04-.41-.13-.11-.09-.2-.2-.27-.34-.07-.14-.14-.28-.2-.43-.06-.15-.13-.3-.22-.43s-.18-.25-.3-.34c-.12-.09-.27-.13-.47-.13-.31,0-.55,.05-.73,.15-.18,.1-.31,.23-.41,.38-.09,.15-.15,.31-.18,.48-.03,.17-.04,.31-.04,.43,0,.41,.1,.78,.3,1.1s.46,.62,.76,.9,.64,.54,.99,.81,.68,.54,.99,.83c.31,.29,.56,.62,.76,.97,.2,.35,.3,.77,.3,1.23,0,.36-.09,.69-.27,.97-.18,.28-.42,.53-.72,.73-.3,.21-.65,.36-1.04,.47-.4,.11-.81,.16-1.25,.16-.4,0-.77-.04-1.11-.1-.34-.07-.63-.17-.87-.3-.24-.13-.42-.29-.56-.48-.14-.19-.2-.4-.2-.63,0-.18,.07-.35,.22-.51,.15-.16,.36-.25,.63-.25Z"/><path class="cls-2" d="M161.75,15.46c0-.06,.02-.11,.06-.17,.02-.04,.05-.07,.1-.1s.13-.05,.23-.05h5.78c.17,0,.25,.04,.25,.12,0,.08-.03,.16-.08,.23l-.53,.87s-.06,.07-.1,.1c-.03,.03-.06,.05-.1,.08-.04,.02-.08,.04-.13,.04s-.1-.01-.15-.04c-.07-.04-.13-.1-.17-.2-.04-.1-.11-.2-.2-.31s-.22-.2-.39-.29c-.17-.08-.43-.13-.76-.13h-1.19c-.13,0-.22,.15-.28,.46-.06,.3-.08,.7-.08,1.2v2.69c.35-.02,.63-.08,.81-.17,.19-.1,.33-.2,.43-.31,.1-.11,.19-.21,.25-.3,.07-.09,.15-.13,.25-.13,.04,0,.07,0,.11,.03,.03,.02,.05,.05,.08,.08,.02,.04,.04,.09,.04,.17v1.75c0,.06,0,.1-.03,.14-.04,.09-.1,.14-.2,.14-.1,0-.19-.05-.25-.14s-.15-.2-.25-.31-.25-.22-.43-.31-.46-.15-.81-.16v2.42c0,.49,.03,.89,.08,1.2,.06,.3,.15,.46,.28,.46h1.48c.35,0,.65-.07,.88-.2s.43-.29,.6-.46c.16-.17,.3-.32,.42-.46,.12-.13,.23-.2,.34-.2,.05,0,.09,.01,.13,.04,.07,.06,.1,.16,.06,.32-.03,.16-.09,.32-.16,.49s-.19,.39-.34,.66c-.07,.11-.18,.18-.33,.22s-.28,.05-.39,.05h-4.93c-.07,0-.14-.01-.2-.04-.05-.02-.09-.05-.13-.1-.04-.05-.06-.11-.06-.18,0-.08,.02-.17,.06-.26,.04-.09,.09-.2,.13-.33,.05-.13,.09-.29,.13-.48,.04-.19,.06-.43,.06-.72v-5.57c0-.29-.02-.53-.06-.72-.04-.19-.09-.35-.13-.48-.05-.13-.09-.24-.13-.33-.04-.09-.06-.17-.06-.26Z"/><path class="cls-2" d="M168.99,24.71c0-.1,.05-.19,.14-.25,.09-.06,.2-.15,.31-.25,.11-.1,.22-.25,.31-.44s.15-.46,.16-.81v-5.85c0-.35-.06-.62-.16-.81-.1-.19-.2-.33-.31-.43-.11-.1-.21-.19-.31-.25-.09-.06-.14-.15-.14-.25,0-.04,.01-.07,.04-.11,.04-.07,.12-.11,.24-.11h1.11c.39,0,.75,.12,1.06,.36,.32,.24,.6,.55,.85,.94s.47,.83,.67,1.34c.19,.5,.36,1.02,.5,1.56s.27,1.07,.37,1.59c.1,.52,.19,1,.26,1.43,.07,.43,.13,.79,.18,1.08,.05,.29,.08,.48,.11,.55l1.37-8.53c0-.06,.02-.11,.06-.17,.02-.04,.05-.07,.1-.1,.05-.03,.13-.05,.23-.05h1.86c.26,0,.39,.11,.39,.32,0,.08-.02,.17-.06,.26-.04,.09-.09,.2-.13,.33-.05,.13-.09,.29-.13,.48-.04,.19-.06,.43-.06,.72v5.57c0,.29,.02,.53,.06,.72,.04,.19,.09,.35,.13,.48,.05,.13,.09,.24,.13,.33,.04,.09,.06,.18,.06,.26,0,.06-.01,.11-.04,.15-.03,.05-.07,.09-.12,.12s-.13,.05-.23,.05h-1.86c-.26,0-.39-.11-.39-.32,0-.08,.02-.17,.06-.26,.04-.09,.09-.2,.13-.33,.05-.13,.09-.29,.13-.48,.04-.19,.06-.43,.06-.72v-5.57c0-.16,0-.3-.02-.43-.01-.13-.03-.25-.05-.35l-1.33,8.18c-.02,.1-.07,.18-.14,.22s-.16,.07-.27,.07h-1.57c-.12,0-.21-.06-.28-.17s-.12-.3-.17-.55c-.04-.2-.09-.51-.15-.93-.06-.42-.13-.9-.21-1.41-.08-.52-.17-1.05-.28-1.6-.11-.55-.23-1.05-.36-1.51-.14-.45-.28-.83-.43-1.12-.15-.29-.32-.44-.51-.44v5.77c.02,.35,.08,.61,.17,.81,.1,.19,.2,.34,.31,.44,.11,.1,.21,.19,.3,.25,.09,.07,.13,.15,.13,.25,0,.04,0,.07-.03,.11-.02,.03-.05,.05-.08,.08-.04,.02-.09,.04-.17,.04h-1.75c-.19,0-.28-.07-.28-.22Z"/><path class="cls-2" d="M179.1,15.46c0-.06,.02-.11,.06-.17,.02-.04,.05-.07,.1-.1s.13-.05,.23-.05h5.78c.17,0,.25,.04,.25,.12,0,.08-.03,.16-.08,.23l-.53,.87s-.06,.07-.1,.1c-.03,.03-.06,.05-.1,.08-.04,.02-.08,.04-.13,.04s-.1-.01-.15-.04c-.07-.04-.13-.1-.17-.2-.04-.1-.11-.2-.2-.31s-.22-.2-.39-.29c-.17-.08-.43-.13-.76-.13h-1.19c-.13,0-.22,.15-.28,.46-.06,.3-.08,.7-.08,1.2v2.69c.35-.02,.63-.08,.81-.17,.19-.1,.33-.2,.43-.31,.1-.11,.19-.21,.25-.3,.07-.09,.15-.13,.25-.13,.04,0,.07,0,.11,.03,.03,.02,.05,.05,.08,.08,.02,.04,.04,.09,.04,.17v1.75c0,.06,0,.1-.03,.14-.04,.09-.1,.14-.2,.14-.1,0-.19-.05-.25-.14s-.15-.2-.25-.31-.25-.22-.43-.31-.46-.15-.81-.16v2.42c0,.49,.03,.89,.08,1.2,.06,.3,.15,.46,.28,.46h1.48c.35,0,.65-.07,.88-.2s.43-.29,.6-.46c.16-.17,.3-.32,.42-.46,.12-.13,.23-.2,.34-.2,.05,0,.09,.01,.13,.04,.07,.06,.1,.16,.06,.32-.03,.16-.09,.32-.16,.49s-.19,.39-.34,.66c-.07,.11-.18,.18-.33,.22s-.28,.05-.39,.05h-4.93c-.07,0-.14-.01-.2-.04-.05-.02-.09-.05-.13-.1-.04-.05-.06-.11-.06-.18,0-.08,.02-.17,.06-.26,.04-.09,.09-.2,.13-.33,.05-.13,.09-.29,.13-.48,.04-.19,.06-.43,.06-.72v-5.57c0-.29-.02-.53-.06-.72-.04-.19-.09-.35-.13-.48-.05-.13-.09-.24-.13-.33-.04-.09-.06-.17-.06-.26Z"/><path class="cls-2" d="M186.35,24.71c0-.1,.05-.19,.14-.25,.09-.06,.2-.15,.31-.25,.11-.1,.22-.25,.31-.44,.1-.19,.15-.46,.16-.81v-5.85c0-.35-.06-.62-.16-.81-.1-.19-.2-.33-.31-.43-.11-.1-.21-.19-.31-.25-.09-.06-.14-.15-.14-.25,0-.04,.01-.07,.04-.11,.04-.07,.12-.11,.24-.11h1.11c.4,0,.79,.12,1.18,.36s.75,.56,1.11,.96c.35,.4,.7,.85,1.02,1.37,.33,.51,.63,1.04,.91,1.57,.28,.54,.54,1.07,.78,1.6s.44,1,.61,1.42v-5.31c0-.35-.06-.62-.16-.81-.1-.19-.2-.33-.32-.43-.11-.1-.21-.19-.31-.25-.09-.06-.14-.15-.14-.25,0-.04,.01-.07,.04-.11,.04-.07,.12-.11,.24-.11h1.75c.19,0,.28,.07,.28,.22,0,.1-.04,.19-.13,.25-.09,.07-.19,.15-.3,.25-.11,.1-.22,.25-.31,.43-.1,.19-.16,.46-.17,.81v5.85c.02,.35,.08,.61,.17,.81,.1,.19,.2,.34,.31,.44,.11,.1,.21,.19,.3,.25,.09,.07,.13,.15,.13,.25,0,.04,0,.07-.03,.11-.02,.03-.05,.05-.08,.08-.04,.02-.09,.04-.17,.04h-2.11c-.12,0-.21-.06-.28-.17-.07-.12-.12-.3-.17-.55-.04-.2-.14-.51-.31-.93-.17-.42-.38-.9-.62-1.41-.25-.52-.52-1.05-.81-1.6s-.59-1.05-.88-1.51c-.29-.45-.57-.83-.84-1.12-.27-.29-.49-.44-.68-.44v5.77c.02,.35,.08,.61,.17,.81,.1,.19,.2,.34,.32,.44,.11,.1,.21,.19,.3,.25,.09,.07,.13,.15,.13,.25,0,.04,0,.07-.03,.11-.02,.03-.05,.05-.08,.08-.04,.02-.09,.04-.17,.04h-1.75c-.19,0-.28-.07-.28-.22Z"/><path class="cls-2" d="M199.67,15c.3,0,.6,.03,.9,.1s.57,.16,.81,.28c.24,.12,.44,.27,.59,.46s.23,.39,.23,.62c0,.18-.08,.35-.22,.51-.15,.16-.36,.25-.63,.25-.25,0-.45-.09-.59-.27s-.26-.38-.36-.6c-.1-.22-.2-.42-.3-.6s-.25-.27-.43-.27c-.15,0-.35,.08-.59,.24-.24,.16-.48,.42-.72,.78-.24,.36-.44,.84-.62,1.44s-.26,1.32-.26,2.19,.08,1.53,.25,2.11c.17,.57,.37,1.04,.62,1.39,.24,.35,.5,.61,.76,.77,.27,.16,.5,.24,.69,.24,.17,0,.32-.04,.46-.11,.14-.07,.26-.17,.36-.29,.1-.12,.19-.26,.27-.41,.08-.15,.13-.31,.17-.46,.05-.17,.12-.29,.23-.36,.11-.07,.22-.1,.34-.1,.16,0,.3,.06,.43,.18,.13,.12,.17,.28,.13,.48-.03,.12-.1,.27-.21,.45-.11,.18-.27,.35-.47,.51-.2,.16-.44,.3-.73,.41-.29,.11-.61,.17-.99,.17-.61,0-1.18-.1-1.71-.31-.53-.21-1-.52-1.39-.93s-.71-.93-.94-1.55c-.23-.62-.34-1.35-.34-2.17,0-.87,.11-1.62,.34-2.26,.23-.64,.53-1.17,.92-1.6,.38-.42,.83-.74,1.35-.94,.52-.21,1.06-.31,1.63-.31Z"/><path class="cls-2" d="M202.91,15.46c0-.06,.02-.11,.06-.17,.02-.04,.05-.07,.11-.1,.05-.03,.13-.05,.23-.05h5.78c.17,0,.25,.04,.25,.12,0,.08-.03,.16-.08,.23l-.53,.87s-.06,.07-.1,.1c-.03,.03-.06,.05-.1,.08-.04,.02-.08,.04-.13,.04s-.1-.01-.15-.04c-.08-.04-.13-.1-.17-.2-.04-.1-.11-.2-.2-.31s-.22-.2-.39-.29c-.17-.08-.43-.13-.76-.13h-1.19c-.13,0-.22,.15-.28,.46s-.08,.7-.08,1.2v2.69c.35-.02,.62-.08,.81-.17,.19-.1,.33-.2,.43-.31,.1-.11,.19-.21,.25-.3,.07-.09,.15-.13,.25-.13,.04,0,.08,0,.11,.03,.03,.02,.05,.05,.08,.08,.02,.04,.04,.09,.04,.17v1.75c0,.06,0,.1-.03,.14-.04,.09-.1,.14-.2,.14-.1,0-.19-.05-.25-.14s-.15-.2-.25-.31-.25-.22-.43-.31c-.19-.1-.46-.15-.81-.16v2.42c0,.49,.03,.89,.08,1.2s.15,.46,.28,.46h1.48c.36,0,.65-.07,.88-.2,.23-.14,.43-.29,.59-.46s.3-.32,.42-.46c.12-.13,.23-.2,.34-.2,.05,0,.09,.01,.13,.04,.08,.06,.1,.16,.06,.32-.03,.16-.09,.32-.16,.49-.08,.17-.19,.39-.34,.66-.07,.11-.17,.18-.33,.22s-.28,.05-.38,.05h-4.93c-.07,0-.14-.01-.2-.04-.05-.02-.09-.05-.13-.1-.04-.05-.06-.11-.06-.18,0-.08,.02-.17,.06-.26,.04-.09,.09-.2,.13-.33,.05-.13,.09-.29,.13-.48,.04-.19,.06-.43,.06-.72v-5.57c0-.29-.02-.53-.06-.72-.04-.19-.09-.35-.13-.48-.05-.13-.09-.24-.13-.33-.04-.09-.06-.17-.06-.26Z"/><path class="cls-2" d="M211.02,22.81c.25,0,.45,.09,.58,.28,.14,.19,.26,.39,.36,.62,.11,.23,.23,.44,.36,.62,.13,.19,.32,.28,.57,.28,.31,0,.55-.05,.73-.15,.18-.1,.31-.23,.41-.38,.09-.15,.15-.31,.18-.47,.03-.16,.04-.31,.04-.43,0-.42-.1-.79-.3-1.1-.2-.31-.45-.6-.75-.88-.3-.27-.62-.53-.98-.78-.35-.25-.68-.52-.98-.81-.3-.29-.55-.61-.75-.97-.2-.35-.3-.77-.3-1.23,0-.36,.09-.69,.27-.99s.41-.55,.71-.76c.29-.21,.64-.38,1.04-.5,.4-.12,.81-.17,1.24-.17,.89,0,1.57,.13,2.04,.4,.47,.27,.71,.64,.71,1.11,0,.18-.08,.35-.22,.51-.15,.16-.36,.25-.63,.25-.17,0-.31-.04-.41-.13-.11-.09-.2-.2-.27-.34-.08-.14-.14-.28-.2-.43-.06-.15-.13-.3-.22-.43s-.18-.25-.3-.34c-.12-.09-.27-.13-.47-.13-.31,0-.55,.05-.73,.15-.18,.1-.31,.23-.41,.38-.09,.15-.15,.31-.18,.48-.03,.17-.04,.31-.04,.43,0,.41,.1,.78,.3,1.1,.2,.32,.46,.62,.76,.9s.64,.54,.99,.81c.35,.26,.68,.54,.99,.83,.31,.29,.56,.62,.76,.97,.2,.35,.3,.77,.3,1.23,0,.36-.09,.69-.27,.97-.18,.28-.42,.53-.72,.73-.3,.21-.65,.36-1.04,.47s-.81,.16-1.25,.16c-.4,0-.77-.04-1.11-.1-.34-.07-.63-.17-.87-.3-.24-.13-.42-.29-.56-.48-.14-.19-.2-.4-.2-.63,0-.18,.07-.35,.22-.51,.15-.16,.36-.25,.63-.25Z"/><path class="cls-2" d="M164.95,39.62v-5.57c0-.29-.02-.53-.06-.72-.04-.19-.09-.35-.13-.48-.05-.13-.09-.24-.13-.33-.04-.09-.06-.17-.06-.26,0-.21,.13-.32,.39-.32h2.35c.61,0,1.17,.1,1.68,.29,.51,.19,.96,.49,1.34,.9,.38,.41,.68,.92,.9,1.55,.21,.62,.32,1.37,.32,2.24s-.11,1.55-.32,2.16c-.21,.61-.51,1.11-.9,1.5-.38,.4-.83,.69-1.34,.88-.51,.19-1.07,.29-1.68,.29h-2.35c-.07,0-.14-.01-.2-.04-.05-.02-.09-.05-.13-.1-.04-.05-.06-.11-.06-.18,0-.08,.02-.17,.06-.26,.04-.09,.09-.2,.13-.33,.05-.13,.09-.29,.13-.48,.04-.19,.06-.43,.06-.72Zm2.09,1.65h.27c.16,0,.36-.07,.61-.22,.25-.14,.49-.38,.72-.72,.23-.34,.43-.78,.6-1.34,.17-.56,.25-1.25,.25-2.09s-.09-1.59-.26-2.17-.38-1.04-.62-1.39c-.24-.34-.48-.59-.72-.73-.24-.14-.44-.22-.59-.22h-.27c-.13,0-.2,.15-.21,.46s-.01,.7-.01,1.2v5.57c0,.49,0,.89,.01,1.2s.08,.46,.21,.46Z"/><path class="cls-2" d="M172.25,32.26c0-.06,.02-.11,.06-.17,.02-.04,.05-.07,.1-.1s.13-.05,.23-.05h5.78c.17,0,.25,.04,.25,.12,0,.08-.03,.16-.08,.23l-.53,.87s-.06,.07-.1,.1c-.03,.03-.06,.05-.1,.08-.04,.02-.08,.04-.13,.04s-.1-.01-.15-.04c-.07-.04-.13-.1-.17-.2-.04-.1-.11-.2-.2-.31s-.22-.2-.39-.29c-.17-.08-.43-.13-.76-.13h-1.19c-.13,0-.22,.15-.28,.46-.06,.3-.08,.7-.08,1.2v2.69c.35-.02,.63-.08,.81-.17,.19-.1,.33-.2,.43-.31,.1-.11,.19-.21,.25-.3,.07-.09,.15-.13,.25-.13,.04,0,.07,0,.11,.03,.03,.02,.05,.05,.08,.08,.02,.04,.04,.09,.04,.17v1.75c0,.06,0,.1-.03,.14-.04,.09-.1,.14-.2,.14-.1,0-.19-.05-.25-.14s-.15-.2-.25-.31-.25-.22-.43-.31-.46-.15-.81-.16v2.42c0,.49,.03,.89,.08,1.2,.06,.3,.15,.46,.28,.46h1.48c.35,0,.65-.07,.88-.2s.43-.29,.6-.46c.16-.17,.3-.32,.42-.46,.12-.13,.23-.2,.34-.2,.05,0,.09,.01,.13,.04,.07,.06,.1,.16,.06,.32-.03,.16-.09,.32-.16,.49s-.19,.39-.34,.66c-.07,.11-.18,.18-.33,.22s-.28,.05-.39,.05h-4.93c-.07,0-.14-.01-.2-.04-.05-.02-.09-.05-.13-.1-.04-.05-.06-.11-.06-.18,0-.08,.02-.17,.06-.26,.04-.09,.09-.2,.13-.33,.05-.13,.09-.29,.13-.48,.04-.19,.06-.43,.06-.72v-5.57c0-.29-.02-.53-.06-.72-.04-.19-.09-.35-.13-.48-.05-.13-.09-.24-.13-.33-.04-.09-.06-.17-.06-.26Z"/><path class="cls-2" d="M183.28,41.42c0-.08,.02-.17,.06-.26,.04-.09,.09-.2,.13-.33,.05-.13,.09-.29,.13-.48,.04-.19,.06-.43,.06-.72v-5.57c0-.29-.02-.53-.06-.72-.04-.19-.09-.35-.13-.48-.05-.13-.09-.24-.13-.33-.04-.09-.06-.17-.06-.26,0-.21,.13-.32,.39-.32h1.86c.06,0,.11,0,.15,.03,.05,.02,.09,.04,.13,.06s.07,.06,.09,.12c.36-.23,.76-.35,1.19-.35,.38,0,.74,.09,1.08,.28,.34,.19,.63,.44,.88,.76s.45,.69,.59,1.11,.22,.88,.22,1.37-.07,.93-.22,1.35c-.14,.42-.34,.8-.59,1.11s-.55,.57-.88,.76c-.34,.19-.7,.28-1.08,.28-.58,0-1.1-.21-1.57-.62v1.43c0,.29,.02,.53,.06,.72,.04,.19,.09,.35,.13,.48,.05,.13,.09,.24,.13,.33,.04,.09,.06,.18,.06,.26,0,.21-.13,.32-.39,.32h-1.86c-.07,0-.14-.01-.2-.04-.05-.02-.09-.05-.13-.1-.04-.05-.06-.11-.06-.18Zm2.25-7.36v3.43c.14,.17,.3,.3,.47,.4,.17,.1,.35,.15,.54,.15,.25,0,.46-.08,.62-.25,.16-.17,.29-.38,.39-.64,.1-.26,.17-.55,.2-.88,.04-.32,.06-.64,.06-.94s-.02-.63-.06-.95-.1-.62-.2-.88c-.1-.26-.23-.48-.39-.64-.16-.17-.37-.25-.62-.25-.23,0-.42,.04-.55,.13-.13,.08-.23,.2-.3,.34-.07,.14-.11,.3-.13,.47-.02,.17-.03,.35-.03,.54Z"/><path class="cls-2" d="M188.89,41.42c0-.08,.05-.17,.14-.27,.09-.09,.2-.21,.33-.34,.13-.14,.26-.3,.41-.49s.26-.42,.36-.69l2.3-6.29-.06-.18c-.03-.1-.07-.19-.12-.26-.05-.07-.1-.14-.15-.2s-.09-.13-.12-.2c-.03-.06-.05-.14-.05-.24,0-.1,.04-.18,.12-.24,.08-.06,.17-.08,.29-.08h1.27c.12,0,.21,.07,.26,.2,.05,.13,.11,.3,.19,.52l2.28,6.97c.08,.27,.17,.5,.27,.69,.1,.19,.19,.35,.27,.49,.08,.14,.14,.25,.2,.34,.05,.09,.08,.18,.08,.27,0,.06-.01,.11-.04,.15-.03,.05-.07,.09-.12,.12-.05,.03-.13,.05-.23,.05h-1.86c-.26,0-.39-.11-.39-.32,0-.08,.01-.17,.04-.27s.05-.21,.07-.34c.02-.13,.02-.29,0-.48-.01-.19-.06-.43-.15-.71l-.39-1.26c-.03-.1-.07-.19-.13-.25s-.15-.1-.29-.1h-2.25c-.09,0-.17,.04-.22,.1-.05,.07-.09,.15-.12,.23l-.45,1.27c-.08,.26-.11,.49-.07,.68,.04,.19,.09,.35,.17,.49,.08,.14,.15,.25,.23,.35,.08,.1,.12,.19,.12,.27,0,.06-.01,.11-.04,.15-.03,.05-.07,.09-.12,.12-.05,.03-.13,.05-.23,.05h-1.4c-.26,0-.39-.11-.39-.32Zm2.65-3.86h2.03c.1,0,.16-.04,.16-.1s0-.13-.02-.17l-1.05-3.22-1.22,3.29c-.02,.06-.02,.1,0,.15,.01,.04,.05,.06,.11,.06Z"/><path class="cls-2" d="M196.57,31.94h2.03c.26,0,.39,.11,.39,.32,0,.08-.02,.16-.06,.24-.04,.08-.07,.18-.1,.3s-.02,.29,.02,.48c.04,.2,.14,.45,.29,.77l1.67,3.23,1.47-3.23c.13-.27,.18-.5,.14-.69s-.1-.35-.19-.49c-.09-.14-.18-.25-.28-.34-.1-.09-.15-.18-.15-.27,0-.06,.02-.11,.06-.17,.02-.04,.05-.07,.11-.1,.05-.03,.13-.05,.23-.05h1.4c.26,0,.39,.11,.39,.32,0,.08-.04,.17-.12,.26-.08,.09-.18,.2-.3,.33-.12,.13-.25,.29-.4,.48-.14,.19-.28,.43-.41,.72l-1.46,3.21c-.05,.11-.1,.25-.17,.41-.07,.16-.1,.27-.1,.32v1.64c0,.29,.02,.53,.06,.72,.04,.19,.09,.35,.13,.48,.05,.13,.09,.24,.13,.33,.04,.09,.06,.18,.06,.26,0,.06-.01,.11-.04,.15-.03,.05-.07,.09-.12,.12-.05,.03-.13,.05-.23,.05h-1.86c-.26,0-.39-.11-.39-.32,0-.08,.02-.17,.06-.26,.04-.09,.09-.2,.13-.33,.05-.13,.09-.29,.13-.48,.04-.19,.06-.43,.06-.72v-1.64c0-.06-.04-.16-.11-.3-.07-.14-.14-.28-.2-.4l-1.67-3.23c-.14-.28-.27-.52-.4-.71-.13-.19-.24-.35-.33-.48-.09-.13-.17-.24-.22-.34s-.08-.18-.08-.27c0-.06,.02-.11,.06-.17,.02-.04,.05-.07,.1-.1,.05-.03,.13-.05,.23-.05Z"/><path class="cls-2" d="M205.26,39.61c.25,0,.45,.09,.58,.28,.14,.19,.26,.39,.36,.62,.11,.23,.23,.44,.36,.62,.13,.19,.32,.28,.57,.28,.31,0,.55-.05,.73-.15,.18-.1,.31-.23,.41-.38,.09-.15,.15-.31,.18-.47,.03-.16,.04-.31,.04-.43,0-.42-.1-.79-.3-1.1-.2-.31-.45-.6-.75-.88-.3-.27-.62-.53-.98-.78-.35-.25-.68-.52-.98-.81-.3-.29-.55-.61-.75-.97-.2-.35-.3-.77-.3-1.23,0-.36,.09-.69,.27-.99s.41-.55,.71-.76c.29-.21,.64-.38,1.04-.5,.4-.12,.81-.17,1.24-.17,.89,0,1.57,.13,2.04,.4,.47,.27,.71,.64,.71,1.11,0,.18-.08,.35-.22,.51-.15,.16-.36,.25-.63,.25-.17,0-.31-.04-.41-.13-.11-.09-.2-.2-.27-.34-.08-.14-.14-.28-.2-.43-.06-.15-.13-.3-.22-.43s-.18-.25-.3-.34c-.12-.09-.27-.13-.47-.13-.31,0-.55,.05-.73,.15-.18,.1-.31,.23-.41,.38-.09,.15-.15,.31-.18,.48-.03,.17-.04,.31-.04,.43,0,.41,.1,.78,.3,1.1,.2,.32,.46,.62,.76,.9s.64,.54,.99,.81c.35,.26,.68,.54,.99,.83,.31,.29,.56,.62,.76,.97,.2,.35,.3,.77,.3,1.23,0,.36-.09,.69-.27,.97-.18,.28-.42,.53-.72,.73-.3,.21-.65,.36-1.04,.47s-.81,.16-1.25,.16c-.4,0-.77-.04-1.11-.1-.34-.07-.63-.17-.87-.3-.24-.13-.42-.29-.56-.48-.14-.19-.2-.4-.2-.63,0-.18,.07-.35,.22-.51,.15-.16,.36-.25,.63-.25Z"/></g></g></svg>